<svg width="139" height="88" viewBox="0 0 139 88" fill="none" xmlns="http://www.w3.org/2000/svg">
<g clip-path="url(#clip0)">
<circle cx="91.2314" cy="33.6136" r="25" transform="rotate(-9.32931 91.2314 33.6136)" fill="#FEC848"/>
<ellipse cx="79.147" cy="34.0787" rx="28" ry="26.5" transform="rotate(-9.32931 79.147 34.0787)" fill="white"/>
</g>
<path d="M13.5877 88H90C96.0001 88 101.5 77 98 68C95.9276 62.6711 90.0755 61.0306 85.3494 60.8081C83.2482 60.7092 81.4431 58.7746 81.4539 56.6711C81.4789 51.7866 79.9583 45.4792 74 42.5C69.026 40.013 64.3097 40.8763 60.8125 42.5662C58.5962 43.6372 55.3212 42.5723 54.4944 40.2538C50.1057 27.9458 40.6857 26.475 36 27.5C25.0213 28.5625 20.8102 40.6779 19.7578 48.6466C19.5476 50.2378 18.2309 51.4869 16.6385 51.6876C10.7219 52.4332 1.34339 55.7712 0.500029 68C-0.269242 79.1544 7.83815 85.6548 12.4632 87.7678C12.8162 87.929 13.1996 88 13.5877 88Z" fill="#ADB0DF"/>
<defs>
<clipPath id="clip0">
<rect width="54" height="54" fill="white" transform="translate(76 8.75389) rotate(-9.32931)"/>
</clipPath>
</defs>
</svg>
