<svg width="63" height="70" viewBox="0 0 63 70" fill="none" xmlns="http://www.w3.org/2000/svg">
<path d="M33 2V18.25M33 68V50.5M33 50.5L21.5 63M33 50.5L44.5 63M33 50.5V34.5M33 34.5L19 43M33 34.5L19 25.75M33 34.5V18.25M33 34.5L47.25 26.375M5 51.5L19 43M19 43L14.5 59.5M19 43L1.5 39.5M5 17L19 25.75M19 25.75L14.5 10.5M19 25.75L1.5 31M33 18.25L21.5 6.5M33 18.25L44.5 6.5M61.5 18.25L47.25 26.375M47.25 26.375L52.5 10.5M47.25 26.375L61.5 31M34 34.5L47.25 43M60.5 51.5L47.25 43M47.25 43L61.5 39.5M47.25 43L51 59.5" stroke="#67B5CD" stroke-width="3" stroke-miterlimit="16" stroke-linecap="round"/>
</svg>
