<svg width="137" height="119" viewBox="0 0 137 119" fill="none" xmlns="http://www.w3.org/2000/svg">
<path d="M31.7448 93.1609C32.055 92.0945 33.0298 91.0431 33.8839 90.3122C34.37 89.8962 35.0867 90.128 35.2582 90.7443C35.5783 91.8947 35.8501 93.3688 35.5856 94.2781C35.1201 95.8785 33.7434 96.5194 32.9203 96.28C32.0973 96.0406 31.1862 95.0812 31.7448 93.1609Z" fill="#48484A"/>
<path d="M13.1387 92.7662H89.5511C95.5511 92.7662 101.051 81.7662 97.551 72.7662C95.4787 67.4373 89.6265 65.7968 84.9004 65.5743C82.7992 65.4754 80.9941 63.5408 81.0049 61.4373C81.03 56.5527 79.5093 50.2453 73.551 47.2662C68.577 44.7792 63.8607 45.6425 60.3636 47.3324C58.1472 48.4034 54.8722 47.3385 54.0455 45.02C49.6568 32.712 40.2368 31.2412 35.551 32.2662C24.5723 33.3286 20.3613 45.4441 19.3088 53.4128C19.0986 55.004 17.7819 56.2531 16.1895 56.4538C10.2729 57.1994 0.894416 60.5374 0.0510539 72.7662C-0.718217 83.9206 7.38917 90.421 12.0143 92.534C12.3672 92.6952 12.7506 92.7662 13.1387 92.7662Z" fill="#ADB0DF"/>
<path d="M25.7448 106.161C26.055 105.095 27.0298 104.043 27.8839 103.312C28.37 102.896 29.0867 103.128 29.2582 103.744C29.5783 104.895 29.8501 106.369 29.5856 107.278C29.1201 108.878 27.7434 109.519 26.9203 109.28C26.0973 109.041 25.1862 108.081 25.7448 106.161Z" fill="#48484A"/>
<path d="M40.7448 103.161C41.055 102.095 42.0298 101.043 42.8839 100.312C43.37 99.8962 44.0867 100.128 44.2582 100.744C44.5783 101.895 44.8501 103.369 44.5856 104.278C44.1201 105.878 42.7434 106.519 41.9203 106.28C41.0973 106.041 40.1862 105.081 40.7448 103.161Z" fill="#48484A"/>
<path d="M35.7448 115.161C36.055 114.095 37.0298 113.043 37.8839 112.312C38.37 111.896 39.0867 112.128 39.2582 112.744C39.5783 113.895 39.8501 115.369 39.5856 116.278C39.1201 117.878 37.7434 118.519 36.9203 118.28C36.0973 118.041 35.1862 117.081 35.7448 115.161Z" fill="#48484A"/>
<path d="M50.7448 114.161C51.055 113.095 52.0298 112.043 52.8839 111.312C53.37 110.896 54.0867 111.128 54.2582 111.744C54.5783 112.895 54.8501 114.369 54.5856 115.278C54.1201 116.878 52.7434 117.519 51.9203 117.28C51.0973 117.041 50.1862 116.081 50.7448 114.161Z" fill="#48484A"/>
<path d="M55.7448 98.1609C56.055 97.0945 57.0298 96.0431 57.8839 95.3122C58.37 94.8962 59.0867 95.128 59.2582 95.7443C59.5783 96.8947 59.8501 98.3688 59.5856 99.2781C59.1201 100.878 57.7434 101.519 56.9203 101.28C56.0973 101.041 55.1862 100.081 55.7448 98.1609Z" fill="#48484A"/>
<path d="M64.7448 105.161C65.055 104.095 66.0298 103.043 66.8839 102.312C67.37 101.896 68.0867 102.128 68.2582 102.744C68.5783 103.895 68.8501 105.369 68.5856 106.278C68.1201 107.878 66.7434 108.519 65.9203 108.28C65.0973 108.041 64.1862 107.081 64.7448 105.161Z" fill="#48484A"/>
<path d="M77.7448 98.1609C78.055 97.0945 79.0298 96.0431 79.8839 95.3122C80.37 94.8962 81.0867 95.128 81.2582 95.7443C81.5783 96.8947 81.8501 98.3688 81.5856 99.2781C81.1201 100.878 79.7434 101.519 78.9203 101.28C78.0973 101.041 77.1862 100.081 77.7448 98.1609Z" fill="#48484A"/>
<g clip-path="url(#clip0)">
<circle cx="89.2314" cy="33.6136" r="25" transform="rotate(-9.32931 89.2314 33.6136)" fill="#FEC848"/>
<ellipse cx="77.147" cy="34.0787" rx="28" ry="26.5" transform="rotate(-9.32931 77.147 34.0787)" fill="white"/>
</g>
<defs>
<clipPath id="clip0">
<rect width="54" height="54" fill="white" transform="translate(74 8.75391) rotate(-9.32931)"/>
</clipPath>
</defs>
</svg>
