<svg width="100" height="91" viewBox="0 0 100 91" fill="none" xmlns="http://www.w3.org/2000/svg">
<circle cx="79" cy="21" r="21" fill="#FEC848"/>
<path d="M13.1387 65.7662H89.5511C95.5511 65.7662 101.051 54.7662 97.551 45.7662C95.4787 40.4373 89.6265 38.7968 84.9004 38.5743C82.7992 38.4754 80.9941 36.5408 81.0049 34.4373C81.03 29.5527 79.5093 23.2453 73.551 20.2662C68.577 17.7792 63.8607 18.6425 60.3636 20.3324C58.1472 21.4034 54.8722 20.3385 54.0455 18.02C49.6568 5.71197 40.2368 4.24119 35.551 5.26619C24.5723 6.32865 20.3613 18.4441 19.3088 26.4128C19.0986 28.004 17.7819 29.2531 16.1895 29.4538C10.2729 30.1994 0.894416 33.5374 0.0510539 45.7662C-0.718217 56.9206 7.38917 63.421 12.0143 65.534C12.3672 65.6952 12.7506 65.7662 13.1387 65.7662Z" fill="#ADB0DF"/>
<path d="M37.5 73H28L38.9773 52H51.5L44.5 64.5H53L29 90.5L37.5 73Z" fill="#FEC848"/>
</svg>
