<svg width="116" height="76" viewBox="0 0 116 76" fill="none" xmlns="http://www.w3.org/2000/svg">
<path d="M30.1387 60.7662H106.551C112.551 60.7662 118.051 49.7662 114.551 40.7662C112.479 35.4373 106.627 33.7968 101.9 33.5743C99.7992 33.4754 97.9941 31.5408 98.0049 29.4373C98.03 24.5527 96.5093 18.2453 90.551 15.2662C85.577 12.7792 80.8607 13.6425 77.3636 15.3324C75.1472 16.4034 71.8722 15.3385 71.0455 13.02C66.6568 0.71197 57.2368 -0.758812 52.551 0.266191C41.5723 1.32865 37.3613 13.4441 36.3088 21.4128C36.0986 23.004 34.7819 24.2531 33.1895 24.4538C27.2729 25.1994 17.8944 28.5374 17.0511 40.7662C16.2818 51.9206 24.3892 58.421 29.0143 60.534C29.3672 60.6952 29.7506 60.7662 30.1387 60.7662Z" fill="#676ECD"/>
<path d="M13.1387 75.7662H89.5511C95.5511 75.7662 101.051 64.7662 97.551 55.7662C95.4787 50.4373 89.6265 48.7968 84.9004 48.5743C82.7992 48.4754 80.9941 46.5408 81.0049 44.4373C81.03 39.5527 79.5093 33.2453 73.551 30.2662C68.577 27.7792 63.8607 28.6425 60.3636 30.3324C58.1472 31.4034 54.8722 30.3385 54.0455 28.02C49.6568 15.712 40.2368 14.2412 35.551 15.2662C24.5723 16.3286 20.3613 28.4441 19.3088 36.4128C19.0986 38.004 17.7819 39.2531 16.1895 39.4538C10.2729 40.1994 0.894416 43.5374 0.0510539 55.7662C-0.718217 66.9206 7.38917 73.421 12.0143 75.534C12.3672 75.6952 12.7506 75.7662 13.1387 75.7662Z" fill="#ADB0DF"/>
</svg>
