<svg width="99" height="61" viewBox="0 0 99 61" fill="none" xmlns="http://www.w3.org/2000/svg">
<path d="M13.1387 60.7662H89.5511C95.5511 60.7662 101.051 49.7662 97.551 40.7662C95.4787 35.4373 89.6265 33.7968 84.9004 33.5743C82.7992 33.4754 80.9941 31.5408 81.0049 29.4373C81.03 24.5527 79.5093 18.2453 73.551 15.2662C68.577 12.7792 63.8607 13.6425 60.3636 15.3324C58.1472 16.4034 54.8722 15.3385 54.0455 13.02C49.6568 0.71197 40.2368 -0.758812 35.551 0.266191C24.5723 1.32865 20.3613 13.4441 19.3088 21.4128C19.0986 23.004 17.7819 24.2531 16.1895 24.4538C10.2729 25.1994 0.894416 28.5374 0.0510539 40.7662C-0.718217 51.9206 7.38917 58.421 12.0143 60.534C12.3672 60.6952 12.7506 60.7662 13.1387 60.7662Z" fill="#ADB0DF"/>
</svg>
