<svg width="116" height="102" viewBox="0 0 116 102" fill="none" xmlns="http://www.w3.org/2000/svg">
<path d="M31.7448 76.1609C32.055 75.0945 33.0298 74.0431 33.8839 73.3122C34.37 72.8962 35.0867 73.128 35.2582 73.7443C35.5783 74.8947 35.8501 76.3688 35.5856 77.2781C35.1201 78.8785 33.7434 79.5194 32.9203 79.28C32.0973 79.0406 31.1862 78.0812 31.7448 76.1609Z" fill="#48484A"/>
<path d="M30.1387 60.7662H106.551C112.551 60.7662 118.051 49.7662 114.551 40.7662C112.479 35.4373 106.627 33.7968 101.9 33.5743C99.7992 33.4754 97.9941 31.5408 98.0049 29.4373C98.03 24.5527 96.5093 18.2453 90.551 15.2662C85.577 12.7792 80.8607 13.6425 77.3636 15.3324C75.1472 16.4034 71.8722 15.3385 71.0455 13.02C66.6568 0.71197 57.2368 -0.758812 52.551 0.266191C41.5723 1.32865 37.3613 13.4441 36.3088 21.4128C36.0986 23.004 34.7819 24.2531 33.1895 24.4538C27.2729 25.1994 17.8944 28.5374 17.0511 40.7662C16.2818 51.9206 24.3892 58.421 29.0143 60.534C29.3672 60.6952 29.7506 60.7662 30.1387 60.7662Z" fill="#676ECD"/>
<path d="M13.1387 75.7662H89.5511C95.5511 75.7662 101.051 64.7662 97.551 55.7662C95.4787 50.4373 89.6265 48.7968 84.9004 48.5743C82.7992 48.4754 80.9941 46.5408 81.0049 44.4373C81.03 39.5527 79.5093 33.2453 73.551 30.2662C68.577 27.7792 63.8607 28.6425 60.3636 30.3324C58.1472 31.4034 54.8722 30.3385 54.0455 28.02C49.6568 15.712 40.2368 14.2412 35.551 15.2662C24.5723 16.3286 20.3613 28.4441 19.3088 36.4128C19.0986 38.004 17.7819 39.2531 16.1895 39.4538C10.2729 40.1994 0.894416 43.5374 0.0510539 55.7662C-0.718217 66.9206 7.38917 73.421 12.0143 75.534C12.3672 75.6952 12.7506 75.7662 13.1387 75.7662Z" fill="#ADB0DF"/>
<path d="M25.7448 89.1609C26.055 88.0945 27.0298 87.0431 27.8839 86.3122C28.37 85.8962 29.0867 86.128 29.2582 86.7443C29.5783 87.8947 29.8501 89.3688 29.5856 90.2781C29.1201 91.8785 27.7434 92.5194 26.9203 92.28C26.0973 92.0406 25.1862 91.0812 25.7448 89.1609Z" fill="#48484A"/>
<path d="M40.7448 86.1609C41.055 85.0945 42.0298 84.0431 42.8839 83.3122C43.37 82.8962 44.0867 83.128 44.2582 83.7443C44.5783 84.8947 44.8501 86.3688 44.5856 87.2781C44.1201 88.8785 42.7434 89.5194 41.9203 89.28C41.0973 89.0406 40.1862 88.0812 40.7448 86.1609Z" fill="#48484A"/>
<path d="M35.7448 98.1609C36.055 97.0945 37.0298 96.0431 37.8839 95.3122C38.37 94.8962 39.0867 95.128 39.2582 95.7443C39.5783 96.8947 39.8501 98.3688 39.5856 99.2781C39.1201 100.878 37.7434 101.519 36.9203 101.28C36.0973 101.041 35.1862 100.081 35.7448 98.1609Z" fill="#48484A"/>
<path d="M50.7448 97.1609C51.055 96.0945 52.0298 95.0431 52.8839 94.3122C53.37 93.8962 54.0867 94.128 54.2582 94.7443C54.5783 95.8947 54.8501 97.3688 54.5856 98.2781C54.1201 99.8785 52.7434 100.519 51.9203 100.28C51.0973 100.041 50.1862 99.0812 50.7448 97.1609Z" fill="#48484A"/>
<path d="M55.7448 81.1609C56.055 80.0945 57.0298 79.0431 57.8839 78.3122C58.37 77.8962 59.0867 78.128 59.2582 78.7443C59.5783 79.8947 59.8501 81.3688 59.5856 82.2781C59.1201 83.8785 57.7434 84.5194 56.9203 84.28C56.0973 84.0406 55.1862 83.0812 55.7448 81.1609Z" fill="#48484A"/>
<path d="M64.7448 88.1609C65.055 87.0945 66.0298 86.0431 66.8839 85.3122C67.37 84.8962 68.0867 85.128 68.2582 85.7443C68.5783 86.8947 68.8501 88.3688 68.5856 89.2781C68.1201 90.8785 66.7434 91.5194 65.9203 91.28C65.0973 91.0406 64.1862 90.0812 64.7448 88.1609Z" fill="#48484A"/>
<path d="M77.7448 81.1609C78.055 80.0945 79.0298 79.0431 79.8839 78.3122C80.37 77.8962 81.0867 78.128 81.2582 78.7443C81.5783 79.8947 81.8501 81.3688 81.5856 82.2781C81.1201 83.8785 79.7434 84.5194 78.9203 84.28C78.0973 84.0406 77.1862 83.0812 77.7448 81.1609Z" fill="#48484A"/>
</svg>
