<svg width="106" height="71" viewBox="0 0 106 71" fill="none" xmlns="http://www.w3.org/2000/svg">
<circle cx="78" cy="28" r="28" fill="#FEC848"/>
<path d="M13.5877 71H90C96.0001 71 101.5 60 98 51C95.9276 45.6711 90.0755 44.0306 85.3494 43.8081C83.2482 43.7092 81.4431 41.7746 81.4539 39.6711C81.4789 34.7866 79.9583 28.4792 74 25.5C69.026 23.013 64.3097 23.8763 60.8125 25.5662C58.5962 26.6372 55.3212 25.5723 54.4944 23.2538C50.1057 10.9458 40.6857 9.475 36 10.5C25.0213 11.5625 20.8102 23.6779 19.7578 31.6466C19.5476 33.2378 18.2309 34.4869 16.6385 34.6876C10.7219 35.4332 1.34339 38.7712 0.500029 51C-0.269242 62.1544 7.83815 68.6548 12.4632 70.7678C12.8162 70.929 13.1996 71 13.5877 71Z" fill="#ADB0DF"/>
</svg>
