<svg width="100" height="92" viewBox="0 0 100 92" fill="none" xmlns="http://www.w3.org/2000/svg">
<path d="M31.7448 66.1609C32.055 65.0945 33.0298 64.0431 33.8839 63.3122C34.37 62.8962 35.0867 63.128 35.2582 63.7443C35.5783 64.8947 35.8501 66.3688 35.5856 67.2781C35.1201 68.8785 33.7434 69.5194 32.9203 69.28C32.0973 69.0406 31.1862 68.0812 31.7448 66.1609Z" fill="#48484A"/>
<circle cx="79" cy="21" r="21" fill="#FEC848"/>
<path d="M13.1387 65.7662H89.5511C95.5511 65.7662 101.051 54.7662 97.551 45.7662C95.4787 40.4373 89.6265 38.7968 84.9004 38.5743C82.7992 38.4754 80.9941 36.5408 81.0049 34.4373C81.03 29.5527 79.5093 23.2453 73.551 20.2662C68.577 17.7792 63.8607 18.6425 60.3636 20.3324C58.1472 21.4034 54.8722 20.3385 54.0455 18.02C49.6568 5.71197 40.2368 4.24119 35.551 5.26619C24.5723 6.32865 20.3613 18.4441 19.3088 26.4128C19.0986 28.004 17.7819 29.2531 16.1895 29.4538C10.2729 30.1994 0.894416 33.5374 0.0510539 45.7662C-0.718217 56.9206 7.38917 63.421 12.0143 65.534C12.3672 65.6952 12.7506 65.7662 13.1387 65.7662Z" fill="#ADB0DF"/>
<path d="M25.7448 79.1609C26.055 78.0945 27.0298 77.0431 27.8839 76.3122C28.37 75.8962 29.0867 76.128 29.2582 76.7443C29.5783 77.8947 29.8501 79.3688 29.5856 80.2781C29.1201 81.8785 27.7434 82.5194 26.9203 82.28C26.0973 82.0406 25.1862 81.0812 25.7448 79.1609Z" fill="#48484A"/>
<path d="M40.7448 76.1609C41.055 75.0945 42.0298 74.0431 42.8839 73.3122C43.37 72.8962 44.0867 73.128 44.2582 73.7443C44.5783 74.8947 44.8501 76.3688 44.5856 77.2781C44.1201 78.8785 42.7434 79.5194 41.9203 79.28C41.0973 79.0406 40.1862 78.0812 40.7448 76.1609Z" fill="#48484A"/>
<path d="M35.7448 88.1609C36.055 87.0945 37.0298 86.0431 37.8839 85.3122C38.37 84.8962 39.0867 85.128 39.2582 85.7443C39.5783 86.8947 39.8501 88.3688 39.5856 89.2781C39.1201 90.8785 37.7434 91.5194 36.9203 91.28C36.0973 91.0406 35.1862 90.0812 35.7448 88.1609Z" fill="#48484A"/>
<path d="M50.7448 87.1609C51.055 86.0945 52.0298 85.0431 52.8839 84.3122C53.37 83.8962 54.0867 84.128 54.2582 84.7443C54.5783 85.8947 54.8501 87.3688 54.5856 88.2781C54.1201 89.8785 52.7434 90.5194 51.9203 90.28C51.0973 90.0406 50.1862 89.0812 50.7448 87.1609Z" fill="#48484A"/>
<path d="M55.7448 71.1609C56.055 70.0945 57.0298 69.0431 57.8839 68.3122C58.37 67.8962 59.0867 68.128 59.2582 68.7443C59.5783 69.8947 59.8501 71.3688 59.5856 72.2781C59.1201 73.8785 57.7434 74.5194 56.9203 74.28C56.0973 74.0406 55.1862 73.0812 55.7448 71.1609Z" fill="#48484A"/>
<path d="M64.7448 78.1609C65.055 77.0945 66.0298 76.0431 66.8839 75.3122C67.37 74.8962 68.0867 75.128 68.2582 75.7443C68.5783 76.8947 68.8501 78.3688 68.5856 79.2781C68.1201 80.8785 66.7434 81.5194 65.9203 81.28C65.0973 81.0406 64.1862 80.0812 64.7448 78.1609Z" fill="#48484A"/>
<path d="M77.7448 71.1609C78.055 70.0945 79.0298 69.0431 79.8839 68.3122C80.37 67.8962 81.0867 68.128 81.2582 68.7443C81.5783 69.8947 81.8501 71.3688 81.5856 72.2781C81.1201 73.8785 79.7434 74.5194 78.9203 74.28C78.0973 74.0406 77.1862 73.0812 77.7448 71.1609Z" fill="#48484A"/>
</svg>
