<svg width="118" height="100" viewBox="0 0 118 100" fill="none" xmlns="http://www.w3.org/2000/svg">
<path d="M32.1387 60.7662H108.551C114.551 60.7662 120.051 49.7662 116.551 40.7662C114.479 35.4373 108.627 33.7968 103.9 33.5743C101.799 33.4754 99.9941 31.5408 100.005 29.4373C100.03 24.5527 98.5093 18.2453 92.551 15.2662C87.577 12.7792 82.8607 13.6425 79.3636 15.3324C77.1472 16.4034 73.8722 15.3385 73.0455 13.02C68.6568 0.71197 59.2368 -0.758812 54.551 0.266191C43.5723 1.32865 39.3613 13.4441 38.3088 21.4128C38.0986 23.004 36.7819 24.2531 35.1895 24.4538C29.2729 25.1994 19.8944 28.5374 19.0511 40.7662C18.2818 51.9206 26.3892 58.421 31.0143 60.534C31.3672 60.6952 31.7506 60.7662 32.1387 60.7662Z" fill="#676ECD"/>
<path d="M13.1387 74.7662H89.5511C95.5511 74.7662 101.051 63.7662 97.551 54.7662C95.4787 49.4373 89.6265 47.7968 84.9004 47.5743C82.7992 47.4754 80.9941 45.5408 81.0049 43.4373C81.03 38.5527 79.5093 32.2453 73.551 29.2662C68.577 26.7792 63.8607 27.6425 60.3636 29.3324C58.1472 30.4034 54.8722 29.3385 54.0455 27.02C49.6568 14.712 40.2368 13.2412 35.551 14.2662C24.5723 15.3286 20.3613 27.4441 19.3088 35.4128C19.0986 37.004 17.7819 38.2531 16.1895 38.4538C10.2729 39.1994 0.894416 42.5374 0.0510539 54.7662C-0.718217 65.9206 7.38917 72.421 12.0143 74.534C12.3672 74.6952 12.7506 74.7662 13.1387 74.7662Z" fill="#ADB0DF"/>
<path d="M37.5 82H28L38.9773 61H51.5L44.5 73.5H53L29 99.5L37.5 82Z" fill="#FEC848"/>
</svg>
